<svg width="1440" height="264" viewBox="0 0 1440 264" fill="none" xmlns="http://www.w3.org/2000/svg">
<rect width="1440" height="264" fill="white"/>
<path d="M736.705 55.875V54.3636H745.71V55.875H742.08V66H740.33V55.875H736.705ZM749.974 66.1761C749.156 66.1761 748.442 65.9886 747.832 65.6136C747.223 65.2386 746.749 64.714 746.412 64.0398C746.075 63.3655 745.906 62.5777 745.906 61.6761C745.906 60.7708 746.075 59.9792 746.412 59.3011C746.749 58.6231 747.223 58.0966 747.832 57.7216C748.442 57.3466 749.156 57.1591 749.974 57.1591C750.793 57.1591 751.507 57.3466 752.116 57.7216C752.726 58.0966 753.2 58.6231 753.537 59.3011C753.874 59.9792 754.043 60.7708 754.043 61.6761C754.043 62.5777 753.874 63.3655 753.537 64.0398C753.2 64.714 752.726 65.2386 752.116 65.6136C751.507 65.9886 750.793 66.1761 749.974 66.1761ZM749.98 64.75C750.51 64.75 750.95 64.6098 751.298 64.3295C751.647 64.0492 751.904 63.6761 752.071 63.2102C752.241 62.7443 752.327 62.2311 752.327 61.6705C752.327 61.1136 752.241 60.6023 752.071 60.1364C751.904 59.6667 751.647 59.2898 751.298 59.0057C750.95 58.7216 750.51 58.5795 749.98 58.5795C749.446 58.5795 749.003 58.7216 748.651 59.0057C748.302 59.2898 748.043 59.6667 747.872 60.1364C747.705 60.6023 747.622 61.1136 747.622 61.6705C747.622 62.2311 747.705 62.7443 747.872 63.2102C748.043 63.6761 748.302 64.0492 748.651 64.3295C749.003 64.6098 749.446 64.75 749.98 64.75ZM755.939 69.2727V57.2727H757.598V58.6875H757.74C757.839 58.5057 757.981 58.2955 758.166 58.0568C758.352 57.8182 758.609 57.6098 758.939 57.4318C759.268 57.25 759.704 57.1591 760.246 57.1591C760.95 57.1591 761.579 57.3371 762.132 57.6932C762.685 58.0492 763.119 58.5625 763.433 59.233C763.751 59.9034 763.911 60.7102 763.911 61.6534C763.911 62.5966 763.753 63.4053 763.439 64.0795C763.125 64.75 762.693 65.267 762.143 65.6307C761.594 65.9905 760.967 66.1705 760.263 66.1705C759.732 66.1705 759.299 66.0814 758.962 65.9034C758.628 65.7254 758.367 65.517 758.178 65.2784C757.988 65.0398 757.842 64.8277 757.74 64.642H757.638V69.2727H755.939ZM757.604 61.6364C757.604 62.25 757.693 62.7879 757.871 63.25C758.049 63.7121 758.306 64.0739 758.643 64.3352C758.981 64.5928 759.393 64.7216 759.882 64.7216C760.39 64.7216 760.814 64.5871 761.155 64.3182C761.496 64.0455 761.753 63.6761 761.928 63.2102C762.106 62.7443 762.195 62.2197 762.195 61.6364C762.195 61.0606 762.107 60.5436 761.933 60.0852C761.763 59.6269 761.505 59.2652 761.161 59C760.82 58.7348 760.393 58.6023 759.882 58.6023C759.39 58.6023 758.973 58.7292 758.632 58.983C758.295 59.2367 758.039 59.5909 757.865 60.0455C757.691 60.5 757.604 61.0303 757.604 61.6364ZM765.814 66V57.2727H767.513V66H765.814ZM766.672 55.9261C766.376 55.9261 766.123 55.8277 765.911 55.6307C765.702 55.4299 765.598 55.1913 765.598 54.9148C765.598 54.6345 765.702 54.3958 765.911 54.1989C766.123 53.9981 766.376 53.8977 766.672 53.8977C766.967 53.8977 767.219 53.9981 767.428 54.1989C767.64 54.3958 767.746 54.6345 767.746 54.9148C767.746 55.1913 767.64 55.4299 767.428 55.6307C767.219 55.8277 766.967 55.9261 766.672 55.9261ZM773.474 66.1761C772.63 66.1761 771.902 65.9848 771.293 65.6023C770.687 65.2159 770.221 64.6837 769.895 64.0057C769.569 63.3277 769.406 62.5511 769.406 61.6761C769.406 60.7898 769.573 60.0076 769.906 59.3295C770.24 58.6477 770.709 58.1155 771.315 57.733C771.921 57.3504 772.635 57.1591 773.457 57.1591C774.12 57.1591 774.711 57.2822 775.23 57.5284C775.749 57.7708 776.168 58.1117 776.486 58.5511C776.808 58.9905 776.999 59.5038 777.06 60.0909H775.406C775.315 59.6818 775.107 59.3295 774.781 59.0341C774.459 58.7386 774.027 58.5909 773.486 58.5909C773.012 58.5909 772.598 58.7159 772.241 58.9659C771.889 59.2121 771.615 59.5644 771.418 60.0227C771.221 60.4773 771.122 61.0152 771.122 61.6364C771.122 62.2727 771.219 62.822 771.412 63.2841C771.605 63.7462 771.878 64.1042 772.23 64.358C772.586 64.6117 773.005 64.7386 773.486 64.7386C773.808 64.7386 774.099 64.6799 774.361 64.5625C774.626 64.4413 774.848 64.2689 775.026 64.0455C775.207 63.822 775.334 63.553 775.406 63.2386H777.06C776.999 63.803 776.815 64.3068 776.509 64.75C776.202 65.1932 775.791 65.5417 775.276 65.7955C774.764 66.0492 774.164 66.1761 773.474 66.1761Z" fill="black"/>
<path d="M737.278 114V102.364H741.426C742.331 102.364 743.081 102.528 743.676 102.858C744.271 103.187 744.716 103.638 745.011 104.21C745.307 104.778 745.455 105.419 745.455 106.131C745.455 106.847 745.305 107.491 745.006 108.062C744.71 108.631 744.263 109.081 743.665 109.415C743.07 109.744 742.322 109.909 741.42 109.909H738.568V108.42H741.261C741.833 108.42 742.297 108.322 742.653 108.125C743.009 107.924 743.271 107.652 743.438 107.307C743.604 106.962 743.688 106.57 743.688 106.131C743.688 105.691 743.604 105.301 743.438 104.96C743.271 104.619 743.008 104.352 742.648 104.159C742.292 103.966 741.822 103.869 741.239 103.869H739.034V114H737.278ZM749.838 114.193C749.285 114.193 748.785 114.091 748.338 113.886C747.891 113.678 747.537 113.377 747.276 112.983C747.018 112.589 746.889 112.106 746.889 111.534C746.889 111.042 746.984 110.636 747.173 110.318C747.363 110 747.618 109.748 747.94 109.562C748.262 109.377 748.622 109.237 749.02 109.142C749.418 109.047 749.823 108.975 750.236 108.926C750.759 108.866 751.183 108.816 751.509 108.778C751.834 108.737 752.071 108.67 752.219 108.58C752.366 108.489 752.44 108.341 752.44 108.136V108.097C752.44 107.6 752.3 107.216 752.02 106.943C751.743 106.67 751.33 106.534 750.781 106.534C750.209 106.534 749.759 106.661 749.429 106.915C749.103 107.165 748.878 107.443 748.753 107.75L747.156 107.386C747.346 106.856 747.622 106.428 747.986 106.102C748.353 105.773 748.776 105.534 749.253 105.386C749.73 105.235 750.232 105.159 750.759 105.159C751.107 105.159 751.476 105.201 751.866 105.284C752.26 105.364 752.628 105.511 752.969 105.727C753.313 105.943 753.596 106.252 753.815 106.653C754.035 107.051 754.145 107.568 754.145 108.205V114H752.486V112.807H752.418C752.308 113.027 752.143 113.242 751.923 113.455C751.704 113.667 751.421 113.843 751.077 113.983C750.732 114.123 750.319 114.193 749.838 114.193ZM750.207 112.83C750.677 112.83 751.079 112.737 751.412 112.551C751.749 112.366 752.005 112.123 752.179 111.824C752.357 111.521 752.446 111.197 752.446 110.852V109.727C752.385 109.788 752.268 109.845 752.094 109.898C751.923 109.947 751.728 109.991 751.509 110.028C751.289 110.062 751.075 110.095 750.866 110.125C750.658 110.152 750.484 110.174 750.344 110.193C750.014 110.235 749.713 110.305 749.44 110.403C749.171 110.502 748.955 110.644 748.793 110.83C748.634 111.011 748.554 111.254 748.554 111.557C748.554 111.977 748.709 112.295 749.02 112.511C749.33 112.723 749.726 112.83 750.207 112.83ZM760.067 117.455C759.374 117.455 758.777 117.364 758.277 117.182C757.781 117 757.375 116.759 757.061 116.46C756.747 116.161 756.512 115.833 756.357 115.477L757.817 114.875C757.919 115.042 758.055 115.218 758.226 115.403C758.4 115.593 758.635 115.754 758.93 115.886C759.23 116.019 759.614 116.085 760.084 116.085C760.728 116.085 761.26 115.928 761.68 115.614C762.101 115.303 762.311 114.807 762.311 114.125V112.409H762.203C762.101 112.595 761.953 112.801 761.76 113.028C761.571 113.256 761.309 113.453 760.976 113.619C760.643 113.786 760.209 113.869 759.675 113.869C758.985 113.869 758.364 113.708 757.811 113.386C757.262 113.061 756.826 112.581 756.504 111.949C756.186 111.312 756.027 110.53 756.027 109.602C756.027 108.674 756.184 107.879 756.499 107.216C756.817 106.553 757.252 106.045 757.805 105.693C758.358 105.337 758.985 105.159 759.686 105.159C760.228 105.159 760.665 105.25 760.999 105.432C761.332 105.61 761.591 105.818 761.777 106.057C761.966 106.295 762.112 106.506 762.214 106.688H762.339V105.273H764.004V114.193C764.004 114.943 763.83 115.559 763.482 116.04C763.133 116.521 762.661 116.877 762.067 117.108C761.476 117.339 760.809 117.455 760.067 117.455ZM760.05 112.46C760.538 112.46 760.951 112.347 761.288 112.119C761.629 111.888 761.887 111.559 762.061 111.131C762.239 110.699 762.328 110.182 762.328 109.58C762.328 108.992 762.241 108.475 762.067 108.028C761.893 107.581 761.637 107.233 761.3 106.983C760.963 106.729 760.546 106.602 760.05 106.602C759.538 106.602 759.112 106.735 758.771 107C758.43 107.261 758.173 107.617 757.999 108.068C757.828 108.519 757.743 109.023 757.743 109.58C757.743 110.152 757.83 110.653 758.004 111.085C758.179 111.517 758.436 111.854 758.777 112.097C759.122 112.339 759.546 112.46 760.05 112.46ZM770.044 114.176C769.184 114.176 768.444 113.992 767.822 113.625C767.205 113.254 766.728 112.733 766.391 112.062C766.057 111.388 765.891 110.598 765.891 109.693C765.891 108.799 766.057 108.011 766.391 107.33C766.728 106.648 767.197 106.116 767.8 105.733C768.406 105.35 769.114 105.159 769.925 105.159C770.417 105.159 770.894 105.241 771.357 105.403C771.819 105.566 772.233 105.822 772.601 106.17C772.968 106.519 773.258 106.972 773.47 107.528C773.682 108.081 773.788 108.754 773.788 109.545V110.148H766.851V108.875H772.124C772.124 108.428 772.033 108.032 771.851 107.688C771.669 107.339 771.413 107.064 771.084 106.864C770.758 106.663 770.375 106.562 769.936 106.562C769.459 106.562 769.042 106.68 768.686 106.915C768.334 107.146 768.061 107.449 767.868 107.824C767.679 108.195 767.584 108.598 767.584 109.034V110.028C767.584 110.612 767.686 111.108 767.891 111.517C768.099 111.926 768.389 112.239 768.76 112.455C769.131 112.667 769.565 112.773 770.061 112.773C770.383 112.773 770.677 112.727 770.942 112.636C771.207 112.542 771.436 112.402 771.629 112.216C771.822 112.03 771.97 111.801 772.072 111.528L773.68 111.818C773.552 112.292 773.321 112.706 772.987 113.062C772.658 113.415 772.243 113.689 771.743 113.886C771.247 114.08 770.68 114.176 770.044 114.176Z" fill="#454545"/>
<path d="M737.278 162V150.364H741.426C742.331 150.364 743.081 150.528 743.676 150.858C744.271 151.187 744.716 151.638 745.011 152.21C745.307 152.778 745.455 153.419 745.455 154.131C745.455 154.847 745.305 155.491 745.006 156.062C744.71 156.631 744.263 157.081 743.665 157.415C743.07 157.744 742.322 157.909 741.42 157.909H738.568V156.42H741.261C741.833 156.42 742.297 156.322 742.653 156.125C743.009 155.924 743.271 155.652 743.438 155.307C743.604 154.962 743.688 154.57 743.688 154.131C743.688 153.691 743.604 153.301 743.438 152.96C743.271 152.619 743.008 152.352 742.648 152.159C742.292 151.966 741.822 151.869 741.239 151.869H739.034V162H737.278ZM749.838 162.193C749.285 162.193 748.785 162.091 748.338 161.886C747.891 161.678 747.537 161.377 747.276 160.983C747.018 160.589 746.889 160.106 746.889 159.534C746.889 159.042 746.984 158.636 747.173 158.318C747.363 158 747.618 157.748 747.94 157.562C748.262 157.377 748.622 157.237 749.02 157.142C749.418 157.047 749.823 156.975 750.236 156.926C750.759 156.866 751.183 156.816 751.509 156.778C751.834 156.737 752.071 156.67 752.219 156.58C752.366 156.489 752.44 156.341 752.44 156.136V156.097C752.44 155.6 752.3 155.216 752.02 154.943C751.743 154.67 751.33 154.534 750.781 154.534C750.209 154.534 749.759 154.661 749.429 154.915C749.103 155.165 748.878 155.443 748.753 155.75L747.156 155.386C747.346 154.856 747.622 154.428 747.986 154.102C748.353 153.773 748.776 153.534 749.253 153.386C749.73 153.235 750.232 153.159 750.759 153.159C751.107 153.159 751.476 153.201 751.866 153.284C752.26 153.364 752.628 153.511 752.969 153.727C753.313 153.943 753.596 154.252 753.815 154.653C754.035 155.051 754.145 155.568 754.145 156.205V162H752.486V160.807H752.418C752.308 161.027 752.143 161.242 751.923 161.455C751.704 161.667 751.421 161.843 751.077 161.983C750.732 162.123 750.319 162.193 749.838 162.193ZM750.207 160.83C750.677 160.83 751.079 160.737 751.412 160.551C751.749 160.366 752.005 160.123 752.179 159.824C752.357 159.521 752.446 159.197 752.446 158.852V157.727C752.385 157.788 752.268 157.845 752.094 157.898C751.923 157.947 751.728 157.991 751.509 158.028C751.289 158.062 751.075 158.095 750.866 158.125C750.658 158.152 750.484 158.174 750.344 158.193C750.014 158.235 749.713 158.305 749.44 158.403C749.171 158.502 748.955 158.644 748.793 158.83C748.634 159.011 748.554 159.254 748.554 159.557C748.554 159.977 748.709 160.295 749.02 160.511C749.33 160.723 749.726 160.83 750.207 160.83ZM760.067 165.455C759.374 165.455 758.777 165.364 758.277 165.182C757.781 165 757.375 164.759 757.061 164.46C756.747 164.161 756.512 163.833 756.357 163.477L757.817 162.875C757.919 163.042 758.055 163.218 758.226 163.403C758.4 163.593 758.635 163.754 758.93 163.886C759.23 164.019 759.614 164.085 760.084 164.085C760.728 164.085 761.26 163.928 761.68 163.614C762.101 163.303 762.311 162.807 762.311 162.125V160.409H762.203C762.101 160.595 761.953 160.801 761.76 161.028C761.571 161.256 761.309 161.453 760.976 161.619C760.643 161.786 760.209 161.869 759.675 161.869C758.985 161.869 758.364 161.708 757.811 161.386C757.262 161.061 756.826 160.581 756.504 159.949C756.186 159.312 756.027 158.53 756.027 157.602C756.027 156.674 756.184 155.879 756.499 155.216C756.817 154.553 757.252 154.045 757.805 153.693C758.358 153.337 758.985 153.159 759.686 153.159C760.228 153.159 760.665 153.25 760.999 153.432C761.332 153.61 761.591 153.818 761.777 154.057C761.966 154.295 762.112 154.506 762.214 154.688H762.339V153.273H764.004V162.193C764.004 162.943 763.83 163.559 763.482 164.04C763.133 164.521 762.661 164.877 762.067 165.108C761.476 165.339 760.809 165.455 760.067 165.455ZM760.05 160.46C760.538 160.46 760.951 160.347 761.288 160.119C761.629 159.888 761.887 159.559 762.061 159.131C762.239 158.699 762.328 158.182 762.328 157.58C762.328 156.992 762.241 156.475 762.067 156.028C761.893 155.581 761.637 155.233 761.3 154.983C760.963 154.729 760.546 154.602 760.05 154.602C759.538 154.602 759.112 154.735 758.771 155C758.43 155.261 758.173 155.617 757.999 156.068C757.828 156.519 757.743 157.023 757.743 157.58C757.743 158.152 757.83 158.653 758.004 159.085C758.179 159.517 758.436 159.854 758.777 160.097C759.122 160.339 759.546 160.46 760.05 160.46ZM770.044 162.176C769.184 162.176 768.444 161.992 767.822 161.625C767.205 161.254 766.728 160.733 766.391 160.062C766.057 159.388 765.891 158.598 765.891 157.693C765.891 156.799 766.057 156.011 766.391 155.33C766.728 154.648 767.197 154.116 767.8 153.733C768.406 153.35 769.114 153.159 769.925 153.159C770.417 153.159 770.894 153.241 771.357 153.403C771.819 153.566 772.233 153.822 772.601 154.17C772.968 154.519 773.258 154.972 773.47 155.528C773.682 156.081 773.788 156.754 773.788 157.545V158.148H766.851V156.875H772.124C772.124 156.428 772.033 156.032 771.851 155.688C771.669 155.339 771.413 155.064 771.084 154.864C770.758 154.663 770.375 154.562 769.936 154.562C769.459 154.562 769.042 154.68 768.686 154.915C768.334 155.146 768.061 155.449 767.868 155.824C767.679 156.195 767.584 156.598 767.584 157.034V158.028C767.584 158.612 767.686 159.108 767.891 159.517C768.099 159.926 768.389 160.239 768.76 160.455C769.131 160.667 769.565 160.773 770.061 160.773C770.383 160.773 770.677 160.727 770.942 160.636C771.207 160.542 771.436 160.402 771.629 160.216C771.822 160.03 771.97 159.801 772.072 159.528L773.68 159.818C773.552 160.292 773.321 160.706 772.987 161.062C772.658 161.415 772.243 161.689 771.743 161.886C771.247 162.08 770.68 162.176 770.044 162.176Z" fill="#454545"/>
<path d="M737.278 210V198.364H741.426C742.331 198.364 743.081 198.528 743.676 198.858C744.271 199.187 744.716 199.638 745.011 200.21C745.307 200.778 745.455 201.419 745.455 202.131C745.455 202.847 745.305 203.491 745.006 204.062C744.71 204.631 744.263 205.081 743.665 205.415C743.07 205.744 742.322 205.909 741.42 205.909H738.568V204.42H741.261C741.833 204.42 742.297 204.322 742.653 204.125C743.009 203.924 743.271 203.652 743.438 203.307C743.604 202.962 743.688 202.57 743.688 202.131C743.688 201.691 743.604 201.301 743.438 200.96C743.271 200.619 743.008 200.352 742.648 200.159C742.292 199.966 741.822 199.869 741.239 199.869H739.034V210H737.278ZM749.838 210.193C749.285 210.193 748.785 210.091 748.338 209.886C747.891 209.678 747.537 209.377 747.276 208.983C747.018 208.589 746.889 208.106 746.889 207.534C746.889 207.042 746.984 206.636 747.173 206.318C747.363 206 747.618 205.748 747.94 205.562C748.262 205.377 748.622 205.237 749.02 205.142C749.418 205.047 749.823 204.975 750.236 204.926C750.759 204.866 751.183 204.816 751.509 204.778C751.834 204.737 752.071 204.67 752.219 204.58C752.366 204.489 752.44 204.341 752.44 204.136V204.097C752.44 203.6 752.3 203.216 752.02 202.943C751.743 202.67 751.33 202.534 750.781 202.534C750.209 202.534 749.759 202.661 749.429 202.915C749.103 203.165 748.878 203.443 748.753 203.75L747.156 203.386C747.346 202.856 747.622 202.428 747.986 202.102C748.353 201.773 748.776 201.534 749.253 201.386C749.73 201.235 750.232 201.159 750.759 201.159C751.107 201.159 751.476 201.201 751.866 201.284C752.26 201.364 752.628 201.511 752.969 201.727C753.313 201.943 753.596 202.252 753.815 202.653C754.035 203.051 754.145 203.568 754.145 204.205V210H752.486V208.807H752.418C752.308 209.027 752.143 209.242 751.923 209.455C751.704 209.667 751.421 209.843 751.077 209.983C750.732 210.123 750.319 210.193 749.838 210.193ZM750.207 208.83C750.677 208.83 751.079 208.737 751.412 208.551C751.749 208.366 752.005 208.123 752.179 207.824C752.357 207.521 752.446 207.197 752.446 206.852V205.727C752.385 205.788 752.268 205.845 752.094 205.898C751.923 205.947 751.728 205.991 751.509 206.028C751.289 206.062 751.075 206.095 750.866 206.125C750.658 206.152 750.484 206.174 750.344 206.193C750.014 206.235 749.713 206.305 749.44 206.403C749.171 206.502 748.955 206.644 748.793 206.83C748.634 207.011 748.554 207.254 748.554 207.557C748.554 207.977 748.709 208.295 749.02 208.511C749.33 208.723 749.726 208.83 750.207 208.83ZM760.067 213.455C759.374 213.455 758.777 213.364 758.277 213.182C757.781 213 757.375 212.759 757.061 212.46C756.747 212.161 756.512 211.833 756.357 211.477L757.817 210.875C757.919 211.042 758.055 211.218 758.226 211.403C758.4 211.593 758.635 211.754 758.93 211.886C759.23 212.019 759.614 212.085 760.084 212.085C760.728 212.085 761.26 211.928 761.68 211.614C762.101 211.303 762.311 210.807 762.311 210.125V208.409H762.203C762.101 208.595 761.953 208.801 761.76 209.028C761.571 209.256 761.309 209.453 760.976 209.619C760.643 209.786 760.209 209.869 759.675 209.869C758.985 209.869 758.364 209.708 757.811 209.386C757.262 209.061 756.826 208.581 756.504 207.949C756.186 207.312 756.027 206.53 756.027 205.602C756.027 204.674 756.184 203.879 756.499 203.216C756.817 202.553 757.252 202.045 757.805 201.693C758.358 201.337 758.985 201.159 759.686 201.159C760.228 201.159 760.665 201.25 760.999 201.432C761.332 201.61 761.591 201.818 761.777 202.057C761.966 202.295 762.112 202.506 762.214 202.688H762.339V201.273H764.004V210.193C764.004 210.943 763.83 211.559 763.482 212.04C763.133 212.521 762.661 212.877 762.067 213.108C761.476 213.339 760.809 213.455 760.067 213.455ZM760.05 208.46C760.538 208.46 760.951 208.347 761.288 208.119C761.629 207.888 761.887 207.559 762.061 207.131C762.239 206.699 762.328 206.182 762.328 205.58C762.328 204.992 762.241 204.475 762.067 204.028C761.893 203.581 761.637 203.233 761.3 202.983C760.963 202.729 760.546 202.602 760.05 202.602C759.538 202.602 759.112 202.735 758.771 203C758.43 203.261 758.173 203.617 757.999 204.068C757.828 204.519 757.743 205.023 757.743 205.58C757.743 206.152 757.83 206.653 758.004 207.085C758.179 207.517 758.436 207.854 758.777 208.097C759.122 208.339 759.546 208.46 760.05 208.46ZM770.044 210.176C769.184 210.176 768.444 209.992 767.822 209.625C767.205 209.254 766.728 208.733 766.391 208.062C766.057 207.388 765.891 206.598 765.891 205.693C765.891 204.799 766.057 204.011 766.391 203.33C766.728 202.648 767.197 202.116 767.8 201.733C768.406 201.35 769.114 201.159 769.925 201.159C770.417 201.159 770.894 201.241 771.357 201.403C771.819 201.566 772.233 201.822 772.601 202.17C772.968 202.519 773.258 202.972 773.47 203.528C773.682 204.081 773.788 204.754 773.788 205.545V206.148H766.851V204.875H772.124C772.124 204.428 772.033 204.032 771.851 203.688C771.669 203.339 771.413 203.064 771.084 202.864C770.758 202.663 770.375 202.562 769.936 202.562C769.459 202.562 769.042 202.68 768.686 202.915C768.334 203.146 768.061 203.449 767.868 203.824C767.679 204.195 767.584 204.598 767.584 205.034V206.028C767.584 206.612 767.686 207.108 767.891 207.517C768.099 207.926 768.389 208.239 768.76 208.455C769.131 208.667 769.565 208.773 770.061 208.773C770.383 208.773 770.677 208.727 770.942 208.636C771.207 208.542 771.436 208.402 771.629 208.216C771.822 208.03 771.97 207.801 772.072 207.528L773.68 207.818C773.552 208.292 773.321 208.706 772.987 209.062C772.658 209.415 772.243 209.689 771.743 209.886C771.247 210.08 770.68 210.176 770.044 210.176Z" fill="#454545"/>
<path d="M955.705 55.875V54.3636H964.71V55.875H961.08V66H959.33V55.875H955.705ZM968.974 66.1761C968.156 66.1761 967.442 65.9886 966.832 65.6136C966.223 65.2386 965.749 64.714 965.412 64.0398C965.075 63.3655 964.906 62.5777 964.906 61.6761C964.906 60.7708 965.075 59.9792 965.412 59.3011C965.749 58.6231 966.223 58.0966 966.832 57.7216C967.442 57.3466 968.156 57.1591 968.974 57.1591C969.793 57.1591 970.507 57.3466 971.116 57.7216C971.726 58.0966 972.2 58.6231 972.537 59.3011C972.874 59.9792 973.043 60.7708 973.043 61.6761C973.043 62.5777 972.874 63.3655 972.537 64.0398C972.2 64.714 971.726 65.2386 971.116 65.6136C970.507 65.9886 969.793 66.1761 968.974 66.1761ZM968.98 64.75C969.51 64.75 969.95 64.6098 970.298 64.3295C970.647 64.0492 970.904 63.6761 971.071 63.2102C971.241 62.7443 971.327 62.2311 971.327 61.6705C971.327 61.1136 971.241 60.6023 971.071 60.1364C970.904 59.6667 970.647 59.2898 970.298 59.0057C969.95 58.7216 969.51 58.5795 968.98 58.5795C968.446 58.5795 968.003 58.7216 967.651 59.0057C967.302 59.2898 967.043 59.6667 966.872 60.1364C966.705 60.6023 966.622 61.1136 966.622 61.6705C966.622 62.2311 966.705 62.7443 966.872 63.2102C967.043 63.6761 967.302 64.0492 967.651 64.3295C968.003 64.6098 968.446 64.75 968.98 64.75ZM974.939 69.2727V57.2727H976.598V58.6875H976.74C976.839 58.5057 976.981 58.2955 977.166 58.0568C977.352 57.8182 977.609 57.6098 977.939 57.4318C978.268 57.25 978.704 57.1591 979.246 57.1591C979.95 57.1591 980.579 57.3371 981.132 57.6932C981.685 58.0492 982.119 58.5625 982.433 59.233C982.751 59.9034 982.911 60.7102 982.911 61.6534C982.911 62.5966 982.753 63.4053 982.439 64.0795C982.125 64.75 981.693 65.267 981.143 65.6307C980.594 65.9905 979.967 66.1705 979.263 66.1705C978.732 66.1705 978.299 66.0814 977.962 65.9034C977.628 65.7254 977.367 65.517 977.178 65.2784C976.988 65.0398 976.842 64.8277 976.74 64.642H976.638V69.2727H974.939ZM976.604 61.6364C976.604 62.25 976.693 62.7879 976.871 63.25C977.049 63.7121 977.306 64.0739 977.643 64.3352C977.981 64.5928 978.393 64.7216 978.882 64.7216C979.39 64.7216 979.814 64.5871 980.155 64.3182C980.496 64.0455 980.753 63.6761 980.928 63.2102C981.106 62.7443 981.195 62.2197 981.195 61.6364C981.195 61.0606 981.107 60.5436 980.933 60.0852C980.763 59.6269 980.505 59.2652 980.161 59C979.82 58.7348 979.393 58.6023 978.882 58.6023C978.39 58.6023 977.973 58.7292 977.632 58.983C977.295 59.2367 977.039 59.5909 976.865 60.0455C976.691 60.5 976.604 61.0303 976.604 61.6364ZM984.814 66V57.2727H986.513V66H984.814ZM985.672 55.9261C985.376 55.9261 985.123 55.8277 984.911 55.6307C984.702 55.4299 984.598 55.1913 984.598 54.9148C984.598 54.6345 984.702 54.3958 984.911 54.1989C985.123 53.9981 985.376 53.8977 985.672 53.8977C985.967 53.8977 986.219 53.9981 986.428 54.1989C986.64 54.3958 986.746 54.6345 986.746 54.9148C986.746 55.1913 986.64 55.4299 986.428 55.6307C986.219 55.8277 985.967 55.9261 985.672 55.9261ZM992.474 66.1761C991.63 66.1761 990.902 65.9848 990.293 65.6023C989.687 65.2159 989.221 64.6837 988.895 64.0057C988.569 63.3277 988.406 62.5511 988.406 61.6761C988.406 60.7898 988.573 60.0076 988.906 59.3295C989.24 58.6477 989.709 58.1155 990.315 57.733C990.921 57.3504 991.635 57.1591 992.457 57.1591C993.12 57.1591 993.711 57.2822 994.23 57.5284C994.749 57.7708 995.168 58.1117 995.486 58.5511C995.808 58.9905 995.999 59.5038 996.06 60.0909H994.406C994.315 59.6818 994.107 59.3295 993.781 59.0341C993.459 58.7386 993.027 58.5909 992.486 58.5909C992.012 58.5909 991.598 58.7159 991.241 58.9659C990.889 59.2121 990.615 59.5644 990.418 60.0227C990.221 60.4773 990.122 61.0152 990.122 61.6364C990.122 62.2727 990.219 62.822 990.412 63.2841C990.605 63.7462 990.878 64.1042 991.23 64.358C991.586 64.6117 992.005 64.7386 992.486 64.7386C992.808 64.7386 993.099 64.6799 993.361 64.5625C993.626 64.4413 993.848 64.2689 994.026 64.0455C994.207 63.822 994.334 63.553 994.406 63.2386H996.06C995.999 63.803 995.815 64.3068 995.509 64.75C995.202 65.1932 994.791 65.5417 994.276 65.7955C993.764 66.0492 993.164 66.1761 992.474 66.1761Z" fill="black"/>
<path d="M956.278 114V102.364H960.426C961.331 102.364 962.081 102.528 962.676 102.858C963.271 103.187 963.716 103.638 964.011 104.21C964.307 104.778 964.455 105.419 964.455 106.131C964.455 106.847 964.305 107.491 964.006 108.062C963.71 108.631 963.263 109.081 962.665 109.415C962.07 109.744 961.322 109.909 960.42 109.909H957.568V108.42H960.261C960.833 108.42 961.297 108.322 961.653 108.125C962.009 107.924 962.271 107.652 962.438 107.307C962.604 106.962 962.688 106.57 962.688 106.131C962.688 105.691 962.604 105.301 962.438 104.96C962.271 104.619 962.008 104.352 961.648 104.159C961.292 103.966 960.822 103.869 960.239 103.869H958.034V114H956.278ZM968.838 114.193C968.285 114.193 967.785 114.091 967.338 113.886C966.891 113.678 966.537 113.377 966.276 112.983C966.018 112.589 965.889 112.106 965.889 111.534C965.889 111.042 965.984 110.636 966.173 110.318C966.363 110 966.618 109.748 966.94 109.562C967.262 109.377 967.622 109.237 968.02 109.142C968.418 109.047 968.823 108.975 969.236 108.926C969.759 108.866 970.183 108.816 970.509 108.778C970.834 108.737 971.071 108.67 971.219 108.58C971.366 108.489 971.44 108.341 971.44 108.136V108.097C971.44 107.6 971.3 107.216 971.02 106.943C970.743 106.67 970.33 106.534 969.781 106.534C969.209 106.534 968.759 106.661 968.429 106.915C968.103 107.165 967.878 107.443 967.753 107.75L966.156 107.386C966.346 106.856 966.622 106.428 966.986 106.102C967.353 105.773 967.776 105.534 968.253 105.386C968.73 105.235 969.232 105.159 969.759 105.159C970.107 105.159 970.476 105.201 970.866 105.284C971.26 105.364 971.628 105.511 971.969 105.727C972.313 105.943 972.596 106.252 972.815 106.653C973.035 107.051 973.145 107.568 973.145 108.205V114H971.486V112.807H971.418C971.308 113.027 971.143 113.242 970.923 113.455C970.704 113.667 970.421 113.843 970.077 113.983C969.732 114.123 969.319 114.193 968.838 114.193ZM969.207 112.83C969.677 112.83 970.079 112.737 970.412 112.551C970.749 112.366 971.005 112.123 971.179 111.824C971.357 111.521 971.446 111.197 971.446 110.852V109.727C971.385 109.788 971.268 109.845 971.094 109.898C970.923 109.947 970.728 109.991 970.509 110.028C970.289 110.062 970.075 110.095 969.866 110.125C969.658 110.152 969.484 110.174 969.344 110.193C969.014 110.235 968.713 110.305 968.44 110.403C968.171 110.502 967.955 110.644 967.793 110.83C967.634 111.011 967.554 111.254 967.554 111.557C967.554 111.977 967.709 112.295 968.02 112.511C968.33 112.723 968.726 112.83 969.207 112.83ZM979.067 117.455C978.374 117.455 977.777 117.364 977.277 117.182C976.781 117 976.375 116.759 976.061 116.46C975.747 116.161 975.512 115.833 975.357 115.477L976.817 114.875C976.919 115.042 977.055 115.218 977.226 115.403C977.4 115.593 977.635 115.754 977.93 115.886C978.23 116.019 978.614 116.085 979.084 116.085C979.728 116.085 980.26 115.928 980.68 115.614C981.101 115.303 981.311 114.807 981.311 114.125V112.409H981.203C981.101 112.595 980.953 112.801 980.76 113.028C980.571 113.256 980.309 113.453 979.976 113.619C979.643 113.786 979.209 113.869 978.675 113.869C977.985 113.869 977.364 113.708 976.811 113.386C976.262 113.061 975.826 112.581 975.504 111.949C975.186 111.312 975.027 110.53 975.027 109.602C975.027 108.674 975.184 107.879 975.499 107.216C975.817 106.553 976.252 106.045 976.805 105.693C977.358 105.337 977.985 105.159 978.686 105.159C979.228 105.159 979.665 105.25 979.999 105.432C980.332 105.61 980.591 105.818 980.777 106.057C980.966 106.295 981.112 106.506 981.214 106.688H981.339V105.273H983.004V114.193C983.004 114.943 982.83 115.559 982.482 116.04C982.133 116.521 981.661 116.877 981.067 117.108C980.476 117.339 979.809 117.455 979.067 117.455ZM979.05 112.46C979.538 112.46 979.951 112.347 980.288 112.119C980.629 111.888 980.887 111.559 981.061 111.131C981.239 110.699 981.328 110.182 981.328 109.58C981.328 108.992 981.241 108.475 981.067 108.028C980.893 107.581 980.637 107.233 980.3 106.983C979.963 106.729 979.546 106.602 979.05 106.602C978.538 106.602 978.112 106.735 977.771 107C977.43 107.261 977.173 107.617 976.999 108.068C976.828 108.519 976.743 109.023 976.743 109.58C976.743 110.152 976.83 110.653 977.004 111.085C977.179 111.517 977.436 111.854 977.777 112.097C978.122 112.339 978.546 112.46 979.05 112.46ZM989.044 114.176C988.184 114.176 987.444 113.992 986.822 113.625C986.205 113.254 985.728 112.733 985.391 112.062C985.057 111.388 984.891 110.598 984.891 109.693C984.891 108.799 985.057 108.011 985.391 107.33C985.728 106.648 986.197 106.116 986.8 105.733C987.406 105.35 988.114 105.159 988.925 105.159C989.417 105.159 989.894 105.241 990.357 105.403C990.819 105.566 991.233 105.822 991.601 106.17C991.968 106.519 992.258 106.972 992.47 107.528C992.682 108.081 992.788 108.754 992.788 109.545V110.148H985.851V108.875H991.124C991.124 108.428 991.033 108.032 990.851 107.688C990.669 107.339 990.413 107.064 990.084 106.864C989.758 106.663 989.375 106.562 988.936 106.562C988.459 106.562 988.042 106.68 987.686 106.915C987.334 107.146 987.061 107.449 986.868 107.824C986.679 108.195 986.584 108.598 986.584 109.034V110.028C986.584 110.612 986.686 111.108 986.891 111.517C987.099 111.926 987.389 112.239 987.76 112.455C988.131 112.667 988.565 112.773 989.061 112.773C989.383 112.773 989.677 112.727 989.942 112.636C990.207 112.542 990.436 112.402 990.629 112.216C990.822 112.03 990.97 111.801 991.072 111.528L992.68 111.818C992.552 112.292 992.321 112.706 991.987 113.062C991.658 113.415 991.243 113.689 990.743 113.886C990.247 114.08 989.68 114.176 989.044 114.176Z" fill="#454545"/>
<path d="M956.278 162V150.364H960.426C961.331 150.364 962.081 150.528 962.676 150.858C963.271 151.187 963.716 151.638 964.011 152.21C964.307 152.778 964.455 153.419 964.455 154.131C964.455 154.847 964.305 155.491 964.006 156.062C963.71 156.631 963.263 157.081 962.665 157.415C962.07 157.744 961.322 157.909 960.42 157.909H957.568V156.42H960.261C960.833 156.42 961.297 156.322 961.653 156.125C962.009 155.924 962.271 155.652 962.438 155.307C962.604 154.962 962.688 154.57 962.688 154.131C962.688 153.691 962.604 153.301 962.438 152.96C962.271 152.619 962.008 152.352 961.648 152.159C961.292 151.966 960.822 151.869 960.239 151.869H958.034V162H956.278ZM968.838 162.193C968.285 162.193 967.785 162.091 967.338 161.886C966.891 161.678 966.537 161.377 966.276 160.983C966.018 160.589 965.889 160.106 965.889 159.534C965.889 159.042 965.984 158.636 966.173 158.318C966.363 158 966.618 157.748 966.94 157.562C967.262 157.377 967.622 157.237 968.02 157.142C968.418 157.047 968.823 156.975 969.236 156.926C969.759 156.866 970.183 156.816 970.509 156.778C970.834 156.737 971.071 156.67 971.219 156.58C971.366 156.489 971.44 156.341 971.44 156.136V156.097C971.44 155.6 971.3 155.216 971.02 154.943C970.743 154.67 970.33 154.534 969.781 154.534C969.209 154.534 968.759 154.661 968.429 154.915C968.103 155.165 967.878 155.443 967.753 155.75L966.156 155.386C966.346 154.856 966.622 154.428 966.986 154.102C967.353 153.773 967.776 153.534 968.253 153.386C968.73 153.235 969.232 153.159 969.759 153.159C970.107 153.159 970.476 153.201 970.866 153.284C971.26 153.364 971.628 153.511 971.969 153.727C972.313 153.943 972.596 154.252 972.815 154.653C973.035 155.051 973.145 155.568 973.145 156.205V162H971.486V160.807H971.418C971.308 161.027 971.143 161.242 970.923 161.455C970.704 161.667 970.421 161.843 970.077 161.983C969.732 162.123 969.319 162.193 968.838 162.193ZM969.207 160.83C969.677 160.83 970.079 160.737 970.412 160.551C970.749 160.366 971.005 160.123 971.179 159.824C971.357 159.521 971.446 159.197 971.446 158.852V157.727C971.385 157.788 971.268 157.845 971.094 157.898C970.923 157.947 970.728 157.991 970.509 158.028C970.289 158.062 970.075 158.095 969.866 158.125C969.658 158.152 969.484 158.174 969.344 158.193C969.014 158.235 968.713 158.305 968.44 158.403C968.171 158.502 967.955 158.644 967.793 158.83C967.634 159.011 967.554 159.254 967.554 159.557C967.554 159.977 967.709 160.295 968.02 160.511C968.33 160.723 968.726 160.83 969.207 160.83ZM979.067 165.455C978.374 165.455 977.777 165.364 977.277 165.182C976.781 165 976.375 164.759 976.061 164.46C975.747 164.161 975.512 163.833 975.357 163.477L976.817 162.875C976.919 163.042 977.055 163.218 977.226 163.403C977.4 163.593 977.635 163.754 977.93 163.886C978.23 164.019 978.614 164.085 979.084 164.085C979.728 164.085 980.26 163.928 980.68 163.614C981.101 163.303 981.311 162.807 981.311 162.125V160.409H981.203C981.101 160.595 980.953 160.801 980.76 161.028C980.571 161.256 980.309 161.453 979.976 161.619C979.643 161.786 979.209 161.869 978.675 161.869C977.985 161.869 977.364 161.708 976.811 161.386C976.262 161.061 975.826 160.581 975.504 159.949C975.186 159.312 975.027 158.53 975.027 157.602C975.027 156.674 975.184 155.879 975.499 155.216C975.817 154.553 976.252 154.045 976.805 153.693C977.358 153.337 977.985 153.159 978.686 153.159C979.228 153.159 979.665 153.25 979.999 153.432C980.332 153.61 980.591 153.818 980.777 154.057C980.966 154.295 981.112 154.506 981.214 154.688H981.339V153.273H983.004V162.193C983.004 162.943 982.83 163.559 982.482 164.04C982.133 164.521 981.661 164.877 981.067 165.108C980.476 165.339 979.809 165.455 979.067 165.455ZM979.05 160.46C979.538 160.46 979.951 160.347 980.288 160.119C980.629 159.888 980.887 159.559 981.061 159.131C981.239 158.699 981.328 158.182 981.328 157.58C981.328 156.992 981.241 156.475 981.067 156.028C980.893 155.581 980.637 155.233 980.3 154.983C979.963 154.729 979.546 154.602 979.05 154.602C978.538 154.602 978.112 154.735 977.771 155C977.43 155.261 977.173 155.617 976.999 156.068C976.828 156.519 976.743 157.023 976.743 157.58C976.743 158.152 976.83 158.653 977.004 159.085C977.179 159.517 977.436 159.854 977.777 160.097C978.122 160.339 978.546 160.46 979.05 160.46ZM989.044 162.176C988.184 162.176 987.444 161.992 986.822 161.625C986.205 161.254 985.728 160.733 985.391 160.062C985.057 159.388 984.891 158.598 984.891 157.693C984.891 156.799 985.057 156.011 985.391 155.33C985.728 154.648 986.197 154.116 986.8 153.733C987.406 153.35 988.114 153.159 988.925 153.159C989.417 153.159 989.894 153.241 990.357 153.403C990.819 153.566 991.233 153.822 991.601 154.17C991.968 154.519 992.258 154.972 992.47 155.528C992.682 156.081 992.788 156.754 992.788 157.545V158.148H985.851V156.875H991.124C991.124 156.428 991.033 156.032 990.851 155.688C990.669 155.339 990.413 155.064 990.084 154.864C989.758 154.663 989.375 154.562 988.936 154.562C988.459 154.562 988.042 154.68 987.686 154.915C987.334 155.146 987.061 155.449 986.868 155.824C986.679 156.195 986.584 156.598 986.584 157.034V158.028C986.584 158.612 986.686 159.108 986.891 159.517C987.099 159.926 987.389 160.239 987.76 160.455C988.131 160.667 988.565 160.773 989.061 160.773C989.383 160.773 989.677 160.727 989.942 160.636C990.207 160.542 990.436 160.402 990.629 160.216C990.822 160.03 990.97 159.801 991.072 159.528L992.68 159.818C992.552 160.292 992.321 160.706 991.987 161.062C991.658 161.415 991.243 161.689 990.743 161.886C990.247 162.08 989.68 162.176 989.044 162.176Z" fill="#454545"/>
<path d="M956.278 210V198.364H960.426C961.331 198.364 962.081 198.528 962.676 198.858C963.271 199.187 963.716 199.638 964.011 200.21C964.307 200.778 964.455 201.419 964.455 202.131C964.455 202.847 964.305 203.491 964.006 204.062C963.71 204.631 963.263 205.081 962.665 205.415C962.07 205.744 961.322 205.909 960.42 205.909H957.568V204.42H960.261C960.833 204.42 961.297 204.322 961.653 204.125C962.009 203.924 962.271 203.652 962.438 203.307C962.604 202.962 962.688 202.57 962.688 202.131C962.688 201.691 962.604 201.301 962.438 200.96C962.271 200.619 962.008 200.352 961.648 200.159C961.292 199.966 960.822 199.869 960.239 199.869H958.034V210H956.278ZM968.838 210.193C968.285 210.193 967.785 210.091 967.338 209.886C966.891 209.678 966.537 209.377 966.276 208.983C966.018 208.589 965.889 208.106 965.889 207.534C965.889 207.042 965.984 206.636 966.173 206.318C966.363 206 966.618 205.748 966.94 205.562C967.262 205.377 967.622 205.237 968.02 205.142C968.418 205.047 968.823 204.975 969.236 204.926C969.759 204.866 970.183 204.816 970.509 204.778C970.834 204.737 971.071 204.67 971.219 204.58C971.366 204.489 971.44 204.341 971.44 204.136V204.097C971.44 203.6 971.3 203.216 971.02 202.943C970.743 202.67 970.33 202.534 969.781 202.534C969.209 202.534 968.759 202.661 968.429 202.915C968.103 203.165 967.878 203.443 967.753 203.75L966.156 203.386C966.346 202.856 966.622 202.428 966.986 202.102C967.353 201.773 967.776 201.534 968.253 201.386C968.73 201.235 969.232 201.159 969.759 201.159C970.107 201.159 970.476 201.201 970.866 201.284C971.26 201.364 971.628 201.511 971.969 201.727C972.313 201.943 972.596 202.252 972.815 202.653C973.035 203.051 973.145 203.568 973.145 204.205V210H971.486V208.807H971.418C971.308 209.027 971.143 209.242 970.923 209.455C970.704 209.667 970.421 209.843 970.077 209.983C969.732 210.123 969.319 210.193 968.838 210.193ZM969.207 208.83C969.677 208.83 970.079 208.737 970.412 208.551C970.749 208.366 971.005 208.123 971.179 207.824C971.357 207.521 971.446 207.197 971.446 206.852V205.727C971.385 205.788 971.268 205.845 971.094 205.898C970.923 205.947 970.728 205.991 970.509 206.028C970.289 206.062 970.075 206.095 969.866 206.125C969.658 206.152 969.484 206.174 969.344 206.193C969.014 206.235 968.713 206.305 968.44 206.403C968.171 206.502 967.955 206.644 967.793 206.83C967.634 207.011 967.554 207.254 967.554 207.557C967.554 207.977 967.709 208.295 968.02 208.511C968.33 208.723 968.726 208.83 969.207 208.83ZM979.067 213.455C978.374 213.455 977.777 213.364 977.277 213.182C976.781 213 976.375 212.759 976.061 212.46C975.747 212.161 975.512 211.833 975.357 211.477L976.817 210.875C976.919 211.042 977.055 211.218 977.226 211.403C977.4 211.593 977.635 211.754 977.93 211.886C978.23 212.019 978.614 212.085 979.084 212.085C979.728 212.085 980.26 211.928 980.68 211.614C981.101 211.303 981.311 210.807 981.311 210.125V208.409H981.203C981.101 208.595 980.953 208.801 980.76 209.028C980.571 209.256 980.309 209.453 979.976 209.619C979.643 209.786 979.209 209.869 978.675 209.869C977.985 209.869 977.364 209.708 976.811 209.386C976.262 209.061 975.826 208.581 975.504 207.949C975.186 207.312 975.027 206.53 975.027 205.602C975.027 204.674 975.184 203.879 975.499 203.216C975.817 202.553 976.252 202.045 976.805 201.693C977.358 201.337 977.985 201.159 978.686 201.159C979.228 201.159 979.665 201.25 979.999 201.432C980.332 201.61 980.591 201.818 980.777 202.057C980.966 202.295 981.112 202.506 981.214 202.688H981.339V201.273H983.004V210.193C983.004 210.943 982.83 211.559 982.482 212.04C982.133 212.521 981.661 212.877 981.067 213.108C980.476 213.339 979.809 213.455 979.067 213.455ZM979.05 208.46C979.538 208.46 979.951 208.347 980.288 208.119C980.629 207.888 980.887 207.559 981.061 207.131C981.239 206.699 981.328 206.182 981.328 205.58C981.328 204.992 981.241 204.475 981.067 204.028C980.893 203.581 980.637 203.233 980.3 202.983C979.963 202.729 979.546 202.602 979.05 202.602C978.538 202.602 978.112 202.735 977.771 203C977.43 203.261 977.173 203.617 976.999 204.068C976.828 204.519 976.743 205.023 976.743 205.58C976.743 206.152 976.83 206.653 977.004 207.085C977.179 207.517 977.436 207.854 977.777 208.097C978.122 208.339 978.546 208.46 979.05 208.46ZM989.044 210.176C988.184 210.176 987.444 209.992 986.822 209.625C986.205 209.254 985.728 208.733 985.391 208.062C985.057 207.388 984.891 206.598 984.891 205.693C984.891 204.799 985.057 204.011 985.391 203.33C985.728 202.648 986.197 202.116 986.8 201.733C987.406 201.35 988.114 201.159 988.925 201.159C989.417 201.159 989.894 201.241 990.357 201.403C990.819 201.566 991.233 201.822 991.601 202.17C991.968 202.519 992.258 202.972 992.47 203.528C992.682 204.081 992.788 204.754 992.788 205.545V206.148H985.851V204.875H991.124C991.124 204.428 991.033 204.032 990.851 203.688C990.669 203.339 990.413 203.064 990.084 202.864C989.758 202.663 989.375 202.562 988.936 202.562C988.459 202.562 988.042 202.68 987.686 202.915C987.334 203.146 987.061 203.449 986.868 203.824C986.679 204.195 986.584 204.598 986.584 205.034V206.028C986.584 206.612 986.686 207.108 986.891 207.517C987.099 207.926 987.389 208.239 987.76 208.455C988.131 208.667 988.565 208.773 989.061 208.773C989.383 208.773 989.677 208.727 989.942 208.636C990.207 208.542 990.436 208.402 990.629 208.216C990.822 208.03 990.97 207.801 991.072 207.528L992.68 207.818C992.552 208.292 992.321 208.706 991.987 209.062C991.658 209.415 991.243 209.689 990.743 209.886C990.247 210.08 989.68 210.176 989.044 210.176Z" fill="#454545"/>
<path d="M1173.7 55.875V54.3636H1182.71V55.875H1179.08V66H1177.33V55.875H1173.7ZM1186.97 66.1761C1186.16 66.1761 1185.44 65.9886 1184.83 65.6136C1184.22 65.2386 1183.75 64.714 1183.41 64.0398C1183.07 63.3655 1182.91 62.5777 1182.91 61.6761C1182.91 60.7708 1183.07 59.9792 1183.41 59.3011C1183.75 58.6231 1184.22 58.0966 1184.83 57.7216C1185.44 57.3466 1186.16 57.1591 1186.97 57.1591C1187.79 57.1591 1188.51 57.3466 1189.12 57.7216C1189.73 58.0966 1190.2 58.6231 1190.54 59.3011C1190.87 59.9792 1191.04 60.7708 1191.04 61.6761C1191.04 62.5777 1190.87 63.3655 1190.54 64.0398C1190.2 64.714 1189.73 65.2386 1189.12 65.6136C1188.51 65.9886 1187.79 66.1761 1186.97 66.1761ZM1186.98 64.75C1187.51 64.75 1187.95 64.6098 1188.3 64.3295C1188.65 64.0492 1188.9 63.6761 1189.07 63.2102C1189.24 62.7443 1189.33 62.2311 1189.33 61.6705C1189.33 61.1136 1189.24 60.6023 1189.07 60.1364C1188.9 59.6667 1188.65 59.2898 1188.3 59.0057C1187.95 58.7216 1187.51 58.5795 1186.98 58.5795C1186.45 58.5795 1186 58.7216 1185.65 59.0057C1185.3 59.2898 1185.04 59.6667 1184.87 60.1364C1184.71 60.6023 1184.62 61.1136 1184.62 61.6705C1184.62 62.2311 1184.71 62.7443 1184.87 63.2102C1185.04 63.6761 1185.3 64.0492 1185.65 64.3295C1186 64.6098 1186.45 64.75 1186.98 64.75ZM1192.94 69.2727V57.2727H1194.6V58.6875H1194.74C1194.84 58.5057 1194.98 58.2955 1195.17 58.0568C1195.35 57.8182 1195.61 57.6098 1195.94 57.4318C1196.27 57.25 1196.7 57.1591 1197.25 57.1591C1197.95 57.1591 1198.58 57.3371 1199.13 57.6932C1199.69 58.0492 1200.12 58.5625 1200.43 59.233C1200.75 59.9034 1200.91 60.7102 1200.91 61.6534C1200.91 62.5966 1200.75 63.4053 1200.44 64.0795C1200.12 64.75 1199.69 65.267 1199.14 65.6307C1198.59 65.9905 1197.97 66.1705 1197.26 66.1705C1196.73 66.1705 1196.3 66.0814 1195.96 65.9034C1195.63 65.7254 1195.37 65.517 1195.18 65.2784C1194.99 65.0398 1194.84 64.8277 1194.74 64.642H1194.64V69.2727H1192.94ZM1194.6 61.6364C1194.6 62.25 1194.69 62.7879 1194.87 63.25C1195.05 63.7121 1195.31 64.0739 1195.64 64.3352C1195.98 64.5928 1196.39 64.7216 1196.88 64.7216C1197.39 64.7216 1197.81 64.5871 1198.15 64.3182C1198.5 64.0455 1198.75 63.6761 1198.93 63.2102C1199.11 62.7443 1199.19 62.2197 1199.19 61.6364C1199.19 61.0606 1199.11 60.5436 1198.93 60.0852C1198.76 59.6269 1198.51 59.2652 1198.16 59C1197.82 58.7348 1197.39 58.6023 1196.88 58.6023C1196.39 58.6023 1195.97 58.7292 1195.63 58.983C1195.29 59.2367 1195.04 59.5909 1194.87 60.0455C1194.69 60.5 1194.6 61.0303 1194.6 61.6364ZM1202.81 66V57.2727H1204.51V66H1202.81ZM1203.67 55.9261C1203.38 55.9261 1203.12 55.8277 1202.91 55.6307C1202.7 55.4299 1202.6 55.1913 1202.6 54.9148C1202.6 54.6345 1202.7 54.3958 1202.91 54.1989C1203.12 53.9981 1203.38 53.8977 1203.67 53.8977C1203.97 53.8977 1204.22 53.9981 1204.43 54.1989C1204.64 54.3958 1204.75 54.6345 1204.75 54.9148C1204.75 55.1913 1204.64 55.4299 1204.43 55.6307C1204.22 55.8277 1203.97 55.9261 1203.67 55.9261ZM1210.47 66.1761C1209.63 66.1761 1208.9 65.9848 1208.29 65.6023C1207.69 65.2159 1207.22 64.6837 1206.89 64.0057C1206.57 63.3277 1206.41 62.5511 1206.41 61.6761C1206.41 60.7898 1206.57 60.0076 1206.91 59.3295C1207.24 58.6477 1207.71 58.1155 1208.32 57.733C1208.92 57.3504 1209.64 57.1591 1210.46 57.1591C1211.12 57.1591 1211.71 57.2822 1212.23 57.5284C1212.75 57.7708 1213.17 58.1117 1213.49 58.5511C1213.81 58.9905 1214 59.5038 1214.06 60.0909H1212.41C1212.32 59.6818 1212.11 59.3295 1211.78 59.0341C1211.46 58.7386 1211.03 58.5909 1210.49 58.5909C1210.01 58.5909 1209.6 58.7159 1209.24 58.9659C1208.89 59.2121 1208.61 59.5644 1208.42 60.0227C1208.22 60.4773 1208.12 61.0152 1208.12 61.6364C1208.12 62.2727 1208.22 62.822 1208.41 63.2841C1208.61 63.7462 1208.88 64.1042 1209.23 64.358C1209.59 64.6117 1210 64.7386 1210.49 64.7386C1210.81 64.7386 1211.1 64.6799 1211.36 64.5625C1211.63 64.4413 1211.85 64.2689 1212.03 64.0455C1212.21 63.822 1212.33 63.553 1212.41 63.2386H1214.06C1214 63.803 1213.82 64.3068 1213.51 64.75C1213.2 65.1932 1212.79 65.5417 1212.28 65.7955C1211.76 66.0492 1211.16 66.1761 1210.47 66.1761Z" fill="black"/>
<path d="M1174.28 114V102.364H1178.43C1179.33 102.364 1180.08 102.528 1180.68 102.858C1181.27 103.187 1181.72 103.638 1182.01 104.21C1182.31 104.778 1182.45 105.419 1182.45 106.131C1182.45 106.847 1182.3 107.491 1182.01 108.062C1181.71 108.631 1181.26 109.081 1180.66 109.415C1180.07 109.744 1179.32 109.909 1178.42 109.909H1175.57V108.42H1178.26C1178.83 108.42 1179.3 108.322 1179.65 108.125C1180.01 107.924 1180.27 107.652 1180.44 107.307C1180.6 106.962 1180.69 106.57 1180.69 106.131C1180.69 105.691 1180.6 105.301 1180.44 104.96C1180.27 104.619 1180.01 104.352 1179.65 104.159C1179.29 103.966 1178.82 103.869 1178.24 103.869H1176.03V114H1174.28ZM1186.84 114.193C1186.29 114.193 1185.79 114.091 1185.34 113.886C1184.89 113.678 1184.54 113.377 1184.28 112.983C1184.02 112.589 1183.89 112.106 1183.89 111.534C1183.89 111.042 1183.98 110.636 1184.17 110.318C1184.36 110 1184.62 109.748 1184.94 109.562C1185.26 109.377 1185.62 109.237 1186.02 109.142C1186.42 109.047 1186.82 108.975 1187.24 108.926C1187.76 108.866 1188.18 108.816 1188.51 108.778C1188.83 108.737 1189.07 108.67 1189.22 108.58C1189.37 108.489 1189.44 108.341 1189.44 108.136V108.097C1189.44 107.6 1189.3 107.216 1189.02 106.943C1188.74 106.67 1188.33 106.534 1187.78 106.534C1187.21 106.534 1186.76 106.661 1186.43 106.915C1186.1 107.165 1185.88 107.443 1185.75 107.75L1184.16 107.386C1184.35 106.856 1184.62 106.428 1184.99 106.102C1185.35 105.773 1185.78 105.534 1186.25 105.386C1186.73 105.235 1187.23 105.159 1187.76 105.159C1188.11 105.159 1188.48 105.201 1188.87 105.284C1189.26 105.364 1189.63 105.511 1189.97 105.727C1190.31 105.943 1190.6 106.252 1190.82 106.653C1191.04 107.051 1191.14 107.568 1191.14 108.205V114H1189.49V112.807H1189.42C1189.31 113.027 1189.14 113.242 1188.92 113.455C1188.7 113.667 1188.42 113.843 1188.08 113.983C1187.73 114.123 1187.32 114.193 1186.84 114.193ZM1187.21 112.83C1187.68 112.83 1188.08 112.737 1188.41 112.551C1188.75 112.366 1189 112.123 1189.18 111.824C1189.36 111.521 1189.45 111.197 1189.45 110.852V109.727C1189.39 109.788 1189.27 109.845 1189.09 109.898C1188.92 109.947 1188.73 109.991 1188.51 110.028C1188.29 110.062 1188.07 110.095 1187.87 110.125C1187.66 110.152 1187.48 110.174 1187.34 110.193C1187.01 110.235 1186.71 110.305 1186.44 110.403C1186.17 110.502 1185.96 110.644 1185.79 110.83C1185.63 111.011 1185.55 111.254 1185.55 111.557C1185.55 111.977 1185.71 112.295 1186.02 112.511C1186.33 112.723 1186.73 112.83 1187.21 112.83ZM1197.07 117.455C1196.37 117.455 1195.78 117.364 1195.28 117.182C1194.78 117 1194.38 116.759 1194.06 116.46C1193.75 116.161 1193.51 115.833 1193.36 115.477L1194.82 114.875C1194.92 115.042 1195.06 115.218 1195.23 115.403C1195.4 115.593 1195.63 115.754 1195.93 115.886C1196.23 116.019 1196.61 116.085 1197.08 116.085C1197.73 116.085 1198.26 115.928 1198.68 115.614C1199.1 115.303 1199.31 114.807 1199.31 114.125V112.409H1199.2C1199.1 112.595 1198.95 112.801 1198.76 113.028C1198.57 113.256 1198.31 113.453 1197.98 113.619C1197.64 113.786 1197.21 113.869 1196.67 113.869C1195.99 113.869 1195.36 113.708 1194.81 113.386C1194.26 113.061 1193.83 112.581 1193.5 111.949C1193.19 111.312 1193.03 110.53 1193.03 109.602C1193.03 108.674 1193.18 107.879 1193.5 107.216C1193.82 106.553 1194.25 106.045 1194.81 105.693C1195.36 105.337 1195.99 105.159 1196.69 105.159C1197.23 105.159 1197.67 105.25 1198 105.432C1198.33 105.61 1198.59 105.818 1198.78 106.057C1198.97 106.295 1199.11 106.506 1199.21 106.688H1199.34V105.273H1201V114.193C1201 114.943 1200.83 115.559 1200.48 116.04C1200.13 116.521 1199.66 116.877 1199.07 117.108C1198.48 117.339 1197.81 117.455 1197.07 117.455ZM1197.05 112.46C1197.54 112.46 1197.95 112.347 1198.29 112.119C1198.63 111.888 1198.89 111.559 1199.06 111.131C1199.24 110.699 1199.33 110.182 1199.33 109.58C1199.33 108.992 1199.24 108.475 1199.07 108.028C1198.89 107.581 1198.64 107.233 1198.3 106.983C1197.96 106.729 1197.55 106.602 1197.05 106.602C1196.54 106.602 1196.11 106.735 1195.77 107C1195.43 107.261 1195.17 107.617 1195 108.068C1194.83 108.519 1194.74 109.023 1194.74 109.58C1194.74 110.152 1194.83 110.653 1195 111.085C1195.18 111.517 1195.44 111.854 1195.78 112.097C1196.12 112.339 1196.55 112.46 1197.05 112.46ZM1207.04 114.176C1206.18 114.176 1205.44 113.992 1204.82 113.625C1204.21 113.254 1203.73 112.733 1203.39 112.062C1203.06 111.388 1202.89 110.598 1202.89 109.693C1202.89 108.799 1203.06 108.011 1203.39 107.33C1203.73 106.648 1204.2 106.116 1204.8 105.733C1205.41 105.35 1206.11 105.159 1206.92 105.159C1207.42 105.159 1207.89 105.241 1208.36 105.403C1208.82 105.566 1209.23 105.822 1209.6 106.17C1209.97 106.519 1210.26 106.972 1210.47 107.528C1210.68 108.081 1210.79 108.754 1210.79 109.545V110.148H1203.85V108.875H1209.12C1209.12 108.428 1209.03 108.032 1208.85 107.688C1208.67 107.339 1208.41 107.064 1208.08 106.864C1207.76 106.663 1207.38 106.562 1206.94 106.562C1206.46 106.562 1206.04 106.68 1205.69 106.915C1205.33 107.146 1205.06 107.449 1204.87 107.824C1204.68 108.195 1204.58 108.598 1204.58 109.034V110.028C1204.58 110.612 1204.69 111.108 1204.89 111.517C1205.1 111.926 1205.39 112.239 1205.76 112.455C1206.13 112.667 1206.56 112.773 1207.06 112.773C1207.38 112.773 1207.68 112.727 1207.94 112.636C1208.21 112.542 1208.44 112.402 1208.63 112.216C1208.82 112.03 1208.97 111.801 1209.07 111.528L1210.68 111.818C1210.55 112.292 1210.32 112.706 1209.99 113.062C1209.66 113.415 1209.24 113.689 1208.74 113.886C1208.25 114.08 1207.68 114.176 1207.04 114.176Z" fill="#454545"/>
<path d="M1174.28 162V150.364H1178.43C1179.33 150.364 1180.08 150.528 1180.68 150.858C1181.27 151.187 1181.72 151.638 1182.01 152.21C1182.31 152.778 1182.45 153.419 1182.45 154.131C1182.45 154.847 1182.3 155.491 1182.01 156.062C1181.71 156.631 1181.26 157.081 1180.66 157.415C1180.07 157.744 1179.32 157.909 1178.42 157.909H1175.57V156.42H1178.26C1178.83 156.42 1179.3 156.322 1179.65 156.125C1180.01 155.924 1180.27 155.652 1180.44 155.307C1180.6 154.962 1180.69 154.57 1180.69 154.131C1180.69 153.691 1180.6 153.301 1180.44 152.96C1180.27 152.619 1180.01 152.352 1179.65 152.159C1179.29 151.966 1178.82 151.869 1178.24 151.869H1176.03V162H1174.28ZM1186.84 162.193C1186.29 162.193 1185.79 162.091 1185.34 161.886C1184.89 161.678 1184.54 161.377 1184.28 160.983C1184.02 160.589 1183.89 160.106 1183.89 159.534C1183.89 159.042 1183.98 158.636 1184.17 158.318C1184.36 158 1184.62 157.748 1184.94 157.562C1185.26 157.377 1185.62 157.237 1186.02 157.142C1186.42 157.047 1186.82 156.975 1187.24 156.926C1187.76 156.866 1188.18 156.816 1188.51 156.778C1188.83 156.737 1189.07 156.67 1189.22 156.58C1189.37 156.489 1189.44 156.341 1189.44 156.136V156.097C1189.44 155.6 1189.3 155.216 1189.02 154.943C1188.74 154.67 1188.33 154.534 1187.78 154.534C1187.21 154.534 1186.76 154.661 1186.43 154.915C1186.1 155.165 1185.88 155.443 1185.75 155.75L1184.16 155.386C1184.35 154.856 1184.62 154.428 1184.99 154.102C1185.35 153.773 1185.78 153.534 1186.25 153.386C1186.73 153.235 1187.23 153.159 1187.76 153.159C1188.11 153.159 1188.48 153.201 1188.87 153.284C1189.26 153.364 1189.63 153.511 1189.97 153.727C1190.31 153.943 1190.6 154.252 1190.82 154.653C1191.04 155.051 1191.14 155.568 1191.14 156.205V162H1189.49V160.807H1189.42C1189.31 161.027 1189.14 161.242 1188.92 161.455C1188.7 161.667 1188.42 161.843 1188.08 161.983C1187.73 162.123 1187.32 162.193 1186.84 162.193ZM1187.21 160.83C1187.68 160.83 1188.08 160.737 1188.41 160.551C1188.75 160.366 1189 160.123 1189.18 159.824C1189.36 159.521 1189.45 159.197 1189.45 158.852V157.727C1189.39 157.788 1189.27 157.845 1189.09 157.898C1188.92 157.947 1188.73 157.991 1188.51 158.028C1188.29 158.062 1188.07 158.095 1187.87 158.125C1187.66 158.152 1187.48 158.174 1187.34 158.193C1187.01 158.235 1186.71 158.305 1186.44 158.403C1186.17 158.502 1185.96 158.644 1185.79 158.83C1185.63 159.011 1185.55 159.254 1185.55 159.557C1185.55 159.977 1185.71 160.295 1186.02 160.511C1186.33 160.723 1186.73 160.83 1187.21 160.83ZM1197.07 165.455C1196.37 165.455 1195.78 165.364 1195.28 165.182C1194.78 165 1194.38 164.759 1194.06 164.46C1193.75 164.161 1193.51 163.833 1193.36 163.477L1194.82 162.875C1194.92 163.042 1195.06 163.218 1195.23 163.403C1195.4 163.593 1195.63 163.754 1195.93 163.886C1196.23 164.019 1196.61 164.085 1197.08 164.085C1197.73 164.085 1198.26 163.928 1198.68 163.614C1199.1 163.303 1199.31 162.807 1199.31 162.125V160.409H1199.2C1199.1 160.595 1198.95 160.801 1198.76 161.028C1198.57 161.256 1198.31 161.453 1197.98 161.619C1197.64 161.786 1197.21 161.869 1196.67 161.869C1195.99 161.869 1195.36 161.708 1194.81 161.386C1194.26 161.061 1193.83 160.581 1193.5 159.949C1193.19 159.312 1193.03 158.53 1193.03 157.602C1193.03 156.674 1193.18 155.879 1193.5 155.216C1193.82 154.553 1194.25 154.045 1194.81 153.693C1195.36 153.337 1195.99 153.159 1196.69 153.159C1197.23 153.159 1197.67 153.25 1198 153.432C1198.33 153.61 1198.59 153.818 1198.78 154.057C1198.97 154.295 1199.11 154.506 1199.21 154.688H1199.34V153.273H1201V162.193C1201 162.943 1200.83 163.559 1200.48 164.04C1200.13 164.521 1199.66 164.877 1199.07 165.108C1198.48 165.339 1197.81 165.455 1197.07 165.455ZM1197.05 160.46C1197.54 160.46 1197.95 160.347 1198.29 160.119C1198.63 159.888 1198.89 159.559 1199.06 159.131C1199.24 158.699 1199.33 158.182 1199.33 157.58C1199.33 156.992 1199.24 156.475 1199.07 156.028C1198.89 155.581 1198.64 155.233 1198.3 154.983C1197.96 154.729 1197.55 154.602 1197.05 154.602C1196.54 154.602 1196.11 154.735 1195.77 155C1195.43 155.261 1195.17 155.617 1195 156.068C1194.83 156.519 1194.74 157.023 1194.74 157.58C1194.74 158.152 1194.83 158.653 1195 159.085C1195.18 159.517 1195.44 159.854 1195.78 160.097C1196.12 160.339 1196.55 160.46 1197.05 160.46ZM1207.04 162.176C1206.18 162.176 1205.44 161.992 1204.82 161.625C1204.21 161.254 1203.73 160.733 1203.39 160.062C1203.06 159.388 1202.89 158.598 1202.89 157.693C1202.89 156.799 1203.06 156.011 1203.39 155.33C1203.73 154.648 1204.2 154.116 1204.8 153.733C1205.41 153.35 1206.11 153.159 1206.92 153.159C1207.42 153.159 1207.89 153.241 1208.36 153.403C1208.82 153.566 1209.23 153.822 1209.6 154.17C1209.97 154.519 1210.26 154.972 1210.47 155.528C1210.68 156.081 1210.79 156.754 1210.79 157.545V158.148H1203.85V156.875H1209.12C1209.12 156.428 1209.03 156.032 1208.85 155.688C1208.67 155.339 1208.41 155.064 1208.08 154.864C1207.76 154.663 1207.38 154.562 1206.94 154.562C1206.46 154.562 1206.04 154.68 1205.69 154.915C1205.33 155.146 1205.06 155.449 1204.87 155.824C1204.68 156.195 1204.58 156.598 1204.58 157.034V158.028C1204.58 158.612 1204.69 159.108 1204.89 159.517C1205.1 159.926 1205.39 160.239 1205.76 160.455C1206.13 160.667 1206.56 160.773 1207.06 160.773C1207.38 160.773 1207.68 160.727 1207.94 160.636C1208.21 160.542 1208.44 160.402 1208.63 160.216C1208.82 160.03 1208.97 159.801 1209.07 159.528L1210.68 159.818C1210.55 160.292 1210.32 160.706 1209.99 161.062C1209.66 161.415 1209.24 161.689 1208.74 161.886C1208.25 162.08 1207.68 162.176 1207.04 162.176Z" fill="#454545"/>
<path d="M1174.28 210V198.364H1178.43C1179.33 198.364 1180.08 198.528 1180.68 198.858C1181.27 199.187 1181.72 199.638 1182.01 200.21C1182.31 200.778 1182.45 201.419 1182.45 202.131C1182.45 202.847 1182.3 203.491 1182.01 204.062C1181.71 204.631 1181.26 205.081 1180.66 205.415C1180.07 205.744 1179.32 205.909 1178.42 205.909H1175.57V204.42H1178.26C1178.83 204.42 1179.3 204.322 1179.65 204.125C1180.01 203.924 1180.27 203.652 1180.44 203.307C1180.6 202.962 1180.69 202.57 1180.69 202.131C1180.69 201.691 1180.6 201.301 1180.44 200.96C1180.27 200.619 1180.01 200.352 1179.65 200.159C1179.29 199.966 1178.82 199.869 1178.24 199.869H1176.03V210H1174.28ZM1186.84 210.193C1186.29 210.193 1185.79 210.091 1185.34 209.886C1184.89 209.678 1184.54 209.377 1184.28 208.983C1184.02 208.589 1183.89 208.106 1183.89 207.534C1183.89 207.042 1183.98 206.636 1184.17 206.318C1184.36 206 1184.62 205.748 1184.94 205.562C1185.26 205.377 1185.62 205.237 1186.02 205.142C1186.42 205.047 1186.82 204.975 1187.24 204.926C1187.76 204.866 1188.18 204.816 1188.51 204.778C1188.83 204.737 1189.07 204.67 1189.22 204.58C1189.37 204.489 1189.44 204.341 1189.44 204.136V204.097C1189.44 203.6 1189.3 203.216 1189.02 202.943C1188.74 202.67 1188.33 202.534 1187.78 202.534C1187.21 202.534 1186.76 202.661 1186.43 202.915C1186.1 203.165 1185.88 203.443 1185.75 203.75L1184.16 203.386C1184.35 202.856 1184.62 202.428 1184.99 202.102C1185.35 201.773 1185.78 201.534 1186.25 201.386C1186.73 201.235 1187.23 201.159 1187.76 201.159C1188.11 201.159 1188.48 201.201 1188.87 201.284C1189.26 201.364 1189.63 201.511 1189.97 201.727C1190.31 201.943 1190.6 202.252 1190.82 202.653C1191.04 203.051 1191.14 203.568 1191.14 204.205V210H1189.49V208.807H1189.42C1189.31 209.027 1189.14 209.242 1188.92 209.455C1188.7 209.667 1188.42 209.843 1188.08 209.983C1187.73 210.123 1187.32 210.193 1186.84 210.193ZM1187.21 208.83C1187.68 208.83 1188.08 208.737 1188.41 208.551C1188.75 208.366 1189 208.123 1189.18 207.824C1189.36 207.521 1189.45 207.197 1189.45 206.852V205.727C1189.39 205.788 1189.27 205.845 1189.09 205.898C1188.92 205.947 1188.73 205.991 1188.51 206.028C1188.29 206.062 1188.07 206.095 1187.87 206.125C1187.66 206.152 1187.48 206.174 1187.34 206.193C1187.01 206.235 1186.71 206.305 1186.44 206.403C1186.17 206.502 1185.96 206.644 1185.79 206.83C1185.63 207.011 1185.55 207.254 1185.55 207.557C1185.55 207.977 1185.71 208.295 1186.02 208.511C1186.33 208.723 1186.73 208.83 1187.21 208.83ZM1197.07 213.455C1196.37 213.455 1195.78 213.364 1195.28 213.182C1194.78 213 1194.38 212.759 1194.06 212.46C1193.75 212.161 1193.51 211.833 1193.36 211.477L1194.82 210.875C1194.92 211.042 1195.06 211.218 1195.23 211.403C1195.4 211.593 1195.63 211.754 1195.93 211.886C1196.23 212.019 1196.61 212.085 1197.08 212.085C1197.73 212.085 1198.26 211.928 1198.68 211.614C1199.1 211.303 1199.31 210.807 1199.31 210.125V208.409H1199.2C1199.1 208.595 1198.95 208.801 1198.76 209.028C1198.57 209.256 1198.31 209.453 1197.98 209.619C1197.64 209.786 1197.21 209.869 1196.67 209.869C1195.99 209.869 1195.36 209.708 1194.81 209.386C1194.26 209.061 1193.83 208.581 1193.5 207.949C1193.19 207.312 1193.03 206.53 1193.03 205.602C1193.03 204.674 1193.18 203.879 1193.5 203.216C1193.82 202.553 1194.25 202.045 1194.81 201.693C1195.36 201.337 1195.99 201.159 1196.69 201.159C1197.23 201.159 1197.67 201.25 1198 201.432C1198.33 201.61 1198.59 201.818 1198.78 202.057C1198.97 202.295 1199.11 202.506 1199.21 202.688H1199.34V201.273H1201V210.193C1201 210.943 1200.83 211.559 1200.48 212.04C1200.13 212.521 1199.66 212.877 1199.07 213.108C1198.48 213.339 1197.81 213.455 1197.07 213.455ZM1197.05 208.46C1197.54 208.46 1197.95 208.347 1198.29 208.119C1198.63 207.888 1198.89 207.559 1199.06 207.131C1199.24 206.699 1199.33 206.182 1199.33 205.58C1199.33 204.992 1199.24 204.475 1199.07 204.028C1198.89 203.581 1198.64 203.233 1198.3 202.983C1197.96 202.729 1197.55 202.602 1197.05 202.602C1196.54 202.602 1196.11 202.735 1195.77 203C1195.43 203.261 1195.17 203.617 1195 204.068C1194.83 204.519 1194.74 205.023 1194.74 205.58C1194.74 206.152 1194.83 206.653 1195 207.085C1195.18 207.517 1195.44 207.854 1195.78 208.097C1196.12 208.339 1196.55 208.46 1197.05 208.46ZM1207.04 210.176C1206.18 210.176 1205.44 209.992 1204.82 209.625C1204.21 209.254 1203.73 208.733 1203.39 208.062C1203.06 207.388 1202.89 206.598 1202.89 205.693C1202.89 204.799 1203.06 204.011 1203.39 203.33C1203.73 202.648 1204.2 202.116 1204.8 201.733C1205.41 201.35 1206.11 201.159 1206.92 201.159C1207.42 201.159 1207.89 201.241 1208.36 201.403C1208.82 201.566 1209.23 201.822 1209.6 202.17C1209.97 202.519 1210.26 202.972 1210.47 203.528C1210.68 204.081 1210.79 204.754 1210.79 205.545V206.148H1203.85V204.875H1209.12C1209.12 204.428 1209.03 204.032 1208.85 203.688C1208.67 203.339 1208.41 203.064 1208.08 202.864C1207.76 202.663 1207.38 202.562 1206.94 202.562C1206.46 202.562 1206.04 202.68 1205.69 202.915C1205.33 203.146 1205.06 203.449 1204.87 203.824C1204.68 204.195 1204.58 204.598 1204.58 205.034V206.028C1204.58 206.612 1204.69 207.108 1204.89 207.517C1205.1 207.926 1205.39 208.239 1205.76 208.455C1206.13 208.667 1206.56 208.773 1207.06 208.773C1207.38 208.773 1207.68 208.727 1207.94 208.636C1208.21 208.542 1208.44 208.402 1208.63 208.216C1208.82 208.03 1208.97 207.801 1209.07 207.528L1210.68 207.818C1210.55 208.292 1210.32 208.706 1209.99 209.062C1209.66 209.415 1209.24 209.689 1208.74 209.886C1208.25 210.08 1207.68 210.176 1207.04 210.176Z" fill="#454545"/>
<path d="M91.6591 65.9091C91.5568 65.0455 91.142 64.375 90.4148 63.8977C89.6875 63.4205 88.7955 63.1818 87.7386 63.1818C86.9659 63.1818 86.2898 63.3068 85.7102 63.5568C85.1364 63.8068 84.6875 64.1506 84.3636 64.5881C84.0455 65.0256 83.8864 65.5227 83.8864 66.0795C83.8864 66.5455 83.9972 66.946 84.2188 67.2812C84.446 67.6108 84.7358 67.8864 85.0881 68.108C85.4403 68.3239 85.8097 68.5028 86.196 68.6449C86.5824 68.7812 86.9375 68.892 87.2614 68.9773L89.0341 69.4545C89.4886 69.5739 89.9943 69.7386 90.5511 69.9489C91.1136 70.1591 91.6506 70.446 92.1619 70.8097C92.679 71.1676 93.1051 71.6278 93.4403 72.1903C93.7756 72.7528 93.9432 73.4432 93.9432 74.2614C93.9432 75.2045 93.696 76.0568 93.2017 76.8182C92.7131 77.5795 91.9972 78.1847 91.054 78.6335C90.1165 79.0824 88.9773 79.3068 87.6364 79.3068C86.3864 79.3068 85.304 79.1051 84.3892 78.7017C83.4801 78.2983 82.7642 77.7358 82.2415 77.0142C81.7244 76.2926 81.4318 75.4545 81.3636 74.5H83.5455C83.6023 75.1591 83.8239 75.7045 84.2102 76.1364C84.6023 76.5625 85.0966 76.8807 85.6932 77.0909C86.2955 77.2955 86.9432 77.3977 87.6364 77.3977C88.4432 77.3977 89.1676 77.267 89.8097 77.0057C90.4517 76.7386 90.9602 76.3693 91.3352 75.8977C91.7102 75.4205 91.8977 74.8636 91.8977 74.2273C91.8977 73.6477 91.7358 73.1761 91.4119 72.8125C91.0881 72.4489 90.6619 72.1534 90.1335 71.9261C89.6051 71.6989 89.0341 71.5 88.4205 71.3295L86.2727 70.7159C84.9091 70.3239 83.8295 69.7642 83.0341 69.0369C82.2386 68.3097 81.8409 67.358 81.8409 66.1818C81.8409 65.2045 82.1051 64.3523 82.6335 63.625C83.1676 62.892 83.8835 62.3239 84.7812 61.9205C85.6847 61.5114 86.6932 61.3068 87.8068 61.3068C88.9318 61.3068 89.9318 61.5085 90.8068 61.9119C91.6818 62.3097 92.375 62.8551 92.8864 63.5483C93.4034 64.2415 93.6761 65.0284 93.7045 65.9091H91.6591ZM97.1456 79V65.9091H99.157V79H97.1456ZM98.1683 63.7273C97.7763 63.7273 97.4382 63.5938 97.1541 63.3267C96.8757 63.0597 96.7365 62.7386 96.7365 62.3636C96.7365 61.9886 96.8757 61.6676 97.1541 61.4006C97.4382 61.1335 97.7763 61 98.1683 61C98.5604 61 98.8956 61.1335 99.174 61.4006C99.4581 61.6676 99.6001 61.9886 99.6001 62.3636C99.6001 62.7386 99.4581 63.0597 99.174 63.3267C98.8956 63.5938 98.5604 63.7273 98.1683 63.7273ZM108.534 65.9091V67.6136H101.75V65.9091H108.534ZM103.727 62.7727H105.739V75.25C105.739 75.8182 105.821 76.2443 105.986 76.5284C106.156 76.8068 106.372 76.9943 106.634 77.0909C106.901 77.1818 107.182 77.2273 107.477 77.2273C107.699 77.2273 107.881 77.2159 108.023 77.1932C108.165 77.1648 108.278 77.142 108.364 77.125L108.773 78.9318C108.636 78.983 108.446 79.0341 108.202 79.0852C107.957 79.142 107.648 79.1705 107.273 79.1705C106.705 79.1705 106.148 79.0483 105.602 78.804C105.063 78.5597 104.614 78.1875 104.256 77.6875C103.903 77.1875 103.727 76.5568 103.727 75.7955V62.7727ZM116.908 79.2727C115.646 79.2727 114.558 78.9943 113.643 78.4375C112.734 77.875 112.033 77.0909 111.538 76.0852C111.05 75.0739 110.805 73.8977 110.805 72.5568C110.805 71.2159 111.05 70.0341 111.538 69.0114C112.033 67.983 112.72 67.1818 113.601 66.608C114.487 66.0284 115.521 65.7386 116.703 65.7386C117.385 65.7386 118.058 65.8523 118.723 66.0795C119.388 66.3068 119.993 66.6761 120.538 67.1875C121.084 67.6932 121.518 68.3636 121.842 69.1989C122.166 70.0341 122.328 71.0625 122.328 72.2841V73.1364H112.237V71.3977H120.283C120.283 70.6591 120.135 70 119.839 69.4205C119.55 68.8409 119.135 68.3835 118.595 68.0483C118.061 67.7131 117.43 67.5455 116.703 67.5455C115.902 67.5455 115.209 67.7443 114.624 68.142C114.044 68.5341 113.598 69.0455 113.286 69.6761C112.973 70.3068 112.817 70.983 112.817 71.7045V72.8636C112.817 73.8523 112.987 74.6903 113.328 75.3778C113.675 76.0597 114.155 76.5795 114.768 76.9375C115.382 77.2898 116.095 77.4659 116.908 77.4659C117.436 77.4659 117.913 77.392 118.339 77.2443C118.771 77.0909 119.143 76.8636 119.456 76.5625C119.768 76.2557 120.01 75.875 120.18 75.4205L122.124 75.9659C121.919 76.625 121.575 77.2045 121.092 77.7045C120.609 78.1989 120.013 78.5852 119.303 78.8636C118.592 79.1364 117.794 79.2727 116.908 79.2727ZM134.149 71.125V79H132.138V65.9091H134.081V67.9545H134.251C134.558 67.2898 135.024 66.7557 135.649 66.3523C136.274 65.9432 137.081 65.7386 138.07 65.7386C138.956 65.7386 139.732 65.9205 140.396 66.2841C141.061 66.642 141.578 67.1875 141.947 67.9205C142.317 68.6477 142.501 69.5682 142.501 70.6818V79H140.49V70.8182C140.49 69.7898 140.223 68.9886 139.689 68.4148C139.155 67.8352 138.422 67.5455 137.49 67.5455C136.848 67.5455 136.274 67.6847 135.768 67.9631C135.268 68.2415 134.874 68.6477 134.584 69.1818C134.294 69.7159 134.149 70.3636 134.149 71.125ZM150.029 79.3068C149.2 79.3068 148.447 79.1506 147.771 78.8381C147.094 78.5199 146.558 78.0625 146.16 77.4659C145.762 76.8636 145.563 76.1364 145.563 75.2841C145.563 74.5341 145.711 73.9261 146.006 73.4602C146.302 72.9886 146.697 72.6193 147.191 72.3523C147.685 72.0852 148.231 71.8864 148.827 71.7557C149.43 71.6193 150.035 71.5114 150.643 71.4318C151.438 71.3295 152.083 71.2528 152.577 71.2017C153.077 71.1449 153.441 71.0511 153.668 70.9205C153.901 70.7898 154.018 70.5625 154.018 70.2386V70.1705C154.018 69.3295 153.788 68.6761 153.327 68.2102C152.873 67.7443 152.183 67.5114 151.256 67.5114C150.296 67.5114 149.543 67.7216 148.998 68.142C148.452 68.5625 148.069 69.0114 147.847 69.4886L145.938 68.8068C146.279 68.0114 146.734 67.392 147.302 66.9489C147.876 66.5 148.501 66.1875 149.177 66.0114C149.859 65.8295 150.529 65.7386 151.188 65.7386C151.609 65.7386 152.092 65.7898 152.637 65.892C153.188 65.9886 153.719 66.1903 154.231 66.4972C154.748 66.804 155.177 67.267 155.518 67.8864C155.859 68.5057 156.029 69.3352 156.029 70.375V79H154.018V77.2273H153.915C153.779 77.5114 153.552 77.8153 153.234 78.1392C152.915 78.4631 152.492 78.7386 151.964 78.9659C151.435 79.1932 150.79 79.3068 150.029 79.3068ZM150.336 77.5C151.131 77.5 151.802 77.3438 152.347 77.0312C152.898 76.7188 153.313 76.3153 153.592 75.821C153.876 75.3267 154.018 74.8068 154.018 74.2614V72.4205C153.933 72.5227 153.745 72.6165 153.455 72.7017C153.171 72.7812 152.842 72.8523 152.467 72.9148C152.097 72.9716 151.737 73.0227 151.384 73.0682C151.038 73.108 150.756 73.142 150.54 73.1705C150.018 73.2386 149.529 73.3494 149.075 73.5028C148.626 73.6506 148.262 73.875 147.984 74.1761C147.711 74.4716 147.575 74.875 147.575 75.3864C147.575 76.0852 147.833 76.6136 148.35 76.9716C148.873 77.3239 149.535 77.5 150.336 77.5ZM159.7 79V65.9091H161.643V67.9545H161.814C162.087 67.2557 162.527 66.7131 163.135 66.3267C163.743 65.9347 164.473 65.7386 165.325 65.7386C166.189 65.7386 166.908 65.9347 167.482 66.3267C168.061 66.7131 168.513 67.2557 168.837 67.9545H168.973C169.308 67.2784 169.811 66.7415 170.482 66.3438C171.152 65.9403 171.956 65.7386 172.893 65.7386C174.064 65.7386 175.021 66.1051 175.766 66.8381C176.51 67.5653 176.882 68.6989 176.882 70.2386V79H174.871V70.2386C174.871 69.2727 174.607 68.5824 174.078 68.1676C173.55 67.7528 172.928 67.5455 172.212 67.5455C171.291 67.5455 170.578 67.8239 170.072 68.3807C169.567 68.9318 169.314 69.6307 169.314 70.4773V79H167.268V70.0341C167.268 69.2898 167.027 68.6903 166.544 68.2358C166.061 67.7756 165.439 67.5455 164.678 67.5455C164.155 67.5455 163.666 67.6847 163.212 67.9631C162.763 68.2415 162.399 68.6278 162.121 69.1222C161.848 69.6108 161.712 70.1761 161.712 70.8182V79H159.7ZM186.048 79.2727C184.787 79.2727 183.699 78.9943 182.784 78.4375C181.875 77.875 181.173 77.0909 180.679 76.0852C180.19 75.0739 179.946 73.8977 179.946 72.5568C179.946 71.2159 180.19 70.0341 180.679 69.0114C181.173 67.983 181.861 67.1818 182.741 66.608C183.628 66.0284 184.662 65.7386 185.844 65.7386C186.526 65.7386 187.199 65.8523 187.864 66.0795C188.528 66.3068 189.134 66.6761 189.679 67.1875C190.224 67.6932 190.659 68.3636 190.983 69.1989C191.307 70.0341 191.469 71.0625 191.469 72.2841V73.1364H181.378V71.3977H189.423C189.423 70.6591 189.276 70 188.98 69.4205C188.69 68.8409 188.276 68.3835 187.736 68.0483C187.202 67.7131 186.571 67.5455 185.844 67.5455C185.043 67.5455 184.349 67.7443 183.764 68.142C183.185 68.5341 182.739 69.0455 182.426 69.6761C182.114 70.3068 181.957 70.983 181.957 71.7045V72.8636C181.957 73.8523 182.128 74.6903 182.469 75.3778C182.815 76.0597 183.295 76.5795 183.909 76.9375C184.523 77.2898 185.236 77.4659 186.048 77.4659C186.577 77.4659 187.054 77.392 187.48 77.2443C187.912 77.0909 188.284 76.8636 188.597 76.5625C188.909 76.2557 189.151 75.875 189.321 75.4205L191.264 75.9659C191.06 76.625 190.716 77.2045 190.233 77.7045C189.75 78.1989 189.153 78.5852 188.443 78.8636C187.733 79.1364 186.935 79.2727 186.048 79.2727Z" fill="black"/>
<path d="M100 186.04C94.5 186.04 90 190.53 90 196.06C90 201.06 93.66 205.21 98.44 205.96V198.96H95.9V196.06H98.44V193.85C98.44 191.34 99.93 189.96 102.22 189.96C103.31 189.96 104.45 190.15 104.45 190.15V192.62H103.19C101.95 192.62 101.56 193.39 101.56 194.18V196.06H104.34L103.89 198.96H101.56V205.96C103.916 205.588 106.062 204.386 107.61 202.57C109.158 200.755 110.005 198.446 110 196.06C110 190.53 105.5 186.04 100 186.04Z" fill="#828282"/>
<path d="M155 187C155.53 187 156.039 187.211 156.414 187.586C156.789 187.961 157 188.47 157 189V203C157 203.53 156.789 204.039 156.414 204.414C156.039 204.789 155.53 205 155 205H141C140.47 205 139.961 204.789 139.586 204.414C139.211 204.039 139 203.53 139 203V189C139 188.47 139.211 187.961 139.586 187.586C139.961 187.211 140.47 187 141 187H155ZM154.5 202.5V197.2C154.5 196.335 154.157 195.506 153.545 194.895C152.934 194.283 152.105 193.94 151.24 193.94C150.39 193.94 149.4 194.46 148.92 195.24V194.13H146.13V202.5H148.92V197.57C148.92 196.8 149.54 196.17 150.31 196.17C150.681 196.17 151.037 196.317 151.3 196.58C151.563 196.843 151.71 197.199 151.71 197.57V202.5H154.5ZM142.88 192.56C143.326 192.56 143.753 192.383 144.068 192.068C144.383 191.753 144.56 191.326 144.56 190.88C144.56 189.95 143.81 189.19 142.88 189.19C142.432 189.19 142.002 189.368 141.685 189.685C141.368 190.002 141.19 190.432 141.19 190.88C141.19 191.81 141.95 192.56 142.88 192.56ZM144.27 202.5V194.13H141.5V202.5H144.27Z" fill="#828282"/>
<path d="M194 199L199.19 196L194 193V199ZM205.56 191.17C205.69 191.64 205.78 192.27 205.84 193.07C205.91 193.87 205.94 194.56 205.94 195.16L206 196C206 198.19 205.84 199.8 205.56 200.83C205.31 201.73 204.73 202.31 203.83 202.56C203.36 202.69 202.5 202.78 201.18 202.84C199.88 202.91 198.69 202.94 197.59 202.94L196 203C191.81 203 189.2 202.84 188.17 202.56C187.27 202.31 186.69 201.73 186.44 200.83C186.31 200.36 186.22 199.73 186.16 198.93C186.09 198.13 186.06 197.44 186.06 196.84L186 196C186 193.81 186.16 192.2 186.44 191.17C186.69 190.27 187.27 189.69 188.17 189.44C188.64 189.31 189.5 189.22 190.82 189.16C192.12 189.09 193.31 189.06 194.41 189.06L196 189C200.19 189 202.8 189.16 203.83 189.44C204.73 189.69 205.31 190.27 205.56 191.17Z" fill="#828282"/>
<path d="M239.8 186H248.2C251.4 186 254 188.6 254 191.8V200.2C254 201.738 253.389 203.214 252.301 204.301C251.214 205.389 249.738 206 248.2 206H239.8C236.6 206 234 203.4 234 200.2V191.8C234 190.262 234.611 188.786 235.699 187.699C236.786 186.611 238.262 186 239.8 186ZM239.6 188C238.645 188 237.73 188.379 237.054 189.054C236.379 189.73 236 190.645 236 191.6V200.4C236 202.39 237.61 204 239.6 204H248.4C249.355 204 250.27 203.621 250.946 202.946C251.621 202.27 252 201.355 252 200.4V191.6C252 189.61 250.39 188 248.4 188H239.6ZM249.25 189.5C249.582 189.5 249.899 189.632 250.134 189.866C250.368 190.101 250.5 190.418 250.5 190.75C250.5 191.082 250.368 191.399 250.134 191.634C249.899 191.868 249.582 192 249.25 192C248.918 192 248.601 191.868 248.366 191.634C248.132 191.399 248 191.082 248 190.75C248 190.418 248.132 190.101 248.366 189.866C248.601 189.632 248.918 189.5 249.25 189.5ZM244 191C245.326 191 246.598 191.527 247.536 192.464C248.473 193.402 249 194.674 249 196C249 197.326 248.473 198.598 247.536 199.536C246.598 200.473 245.326 201 244 201C242.674 201 241.402 200.473 240.464 199.536C239.527 198.598 239 197.326 239 196C239 194.674 239.527 193.402 240.464 192.464C241.402 191.527 242.674 191 244 191ZM244 193C243.204 193 242.441 193.316 241.879 193.879C241.316 194.441 241 195.204 241 196C241 196.796 241.316 197.559 241.879 198.121C242.441 198.684 243.204 199 244 199C244.796 199 245.559 198.684 246.121 198.121C246.684 197.559 247 196.796 247 196C247 195.204 246.684 194.441 246.121 193.879C245.559 193.316 244.796 193 244 193Z" fill="#828282"/>
<line x1="80" y1="0.5" x2="1360" y2="0.500112" stroke="#E6E6E6"/>
</svg>
